<?xml version="1.0" encoding="UTF-8" standalone="no"?>
<!-- Created with Inkscape (http://www.inkscape.org/) -->

<svg
   width="256"
   height="256"
   viewBox="0 0 256 256"
   version="1.1"
   id="svg5"
   xmlns="http://www.w3.org/2000/svg"
   xmlns:svg="http://www.w3.org/2000/svg">
  <defs
     id="defs2" />
  <g
     id="layer1">
    <g
       id="g7410"
       transform="matrix(10.253991,0,0,-10.253991,-36.063856,268.19148)">
      <g
         id="g843">
        <g
           id="g1510"
           transform="translate(0,-1.5)"
           style="stroke-width:3;stroke-miterlimit:4;stroke-dasharray:none" />
        <g
           id="g2838"
           transform="rotate(-120,15.020726,18.922649)"
           style="fill:none" />
        <g
           id="g4627"
           transform="rotate(-120,-0.4330127,0.75)"
           style="stroke-width:3;stroke-miterlimit:4;stroke-dasharray:none" />
        <g
           id="g4629"
           transform="rotate(120,23.897858,-3.5470058)"
           style="fill:none" />
        <path
           style="color:#000000;fill:#fafafa;fill-opacity:1;stroke:none;-inkscape-stroke:none"
           d="M 22.962891,14.730469 C 22.599364,18.262058 19.630748,21 16,21 c -1.236946,0 -2.395977,-0.318414 -3.402344,-0.876953 0.507466,0.828638 1.226635,1.547956 2.134766,2.072265 0.793795,0.458299 2.151968,0.594622 3.708984,0.464844 2.495343,-0.705569 4.556878,-2.461849 5.667969,-4.759765 -0.104992,-0.386159 -0.221822,-0.781562 -0.355469,-1.191407 -0.229522,-0.70386 -0.499853,-1.367379 -0.791015,-1.978515 z"
           id="path6985" />
        <path
           style="color:#000000;fill:#fafafa;fill-opacity:1;stroke:none;-inkscape-stroke:none"
           d="M 16,1.5859375 15.292969,2.2929688 C 14.376542,3.209395 12.32188,4.9026328 10.505859,6.9238281 8.6898388,8.9450235 7,11.338199 7,14 7,15.285869 7.2726838,16.509174 7.7617188,17.617188 7.6391551,15.716573 8.0541033,13.763509 9.0722656,12 9.5101429,11.241574 10.038034,10.567899 10.628906,9.9726562 11.037627,9.3920481 11.495597,8.8165881 11.994141,8.2617188 13.425432,6.6687198 14.880622,5.4379538 16,4.390625 c 0.823638,0.7706243 1.829086,1.6431175 2.873047,2.6835938 0.03377,0.00378 0.0678,0.00368 0.101562,0.00781 1.253383,0.1534318 2.495912,0.549544 3.658203,1.203125 C 22.26858,7.8156844 21.885797,7.3597335 21.494141,6.9238281 19.67812,4.9026328 17.623458,3.2093949 16.707031,2.2929688 Z"
           id="path5174" />
        <path
           style="color:#000000;fill:#fafafa;fill-opacity:1;stroke:none;-inkscape-stroke:none"
           d="M 13.618001,22.664806 C 10.741318,20.584188 9.854499,16.64432 11.669873,13.5 c 0.618473,-1.071227 1.473743,-1.91577 2.460636,-2.50804 -0.971355,0.02516 -1.953887,0.288319 -2.862018,0.812629 -0.793796,0.458297 -1.5909414,1.566348 -2.2570583,2.979653 -0.6366308,2.513815 -0.1464152,5.177296 1.2880933,7.288487 0.386919,0.102154 0.787763,0.198678 1.209523,0.287859 0.724321,0.153158 1.434111,0.250804 2.108952,0.304218 z"
           id="path7345" />
        <path
           style="color:#000000;fill:#fafafa;fill-opacity:1;stroke:none;-inkscape-stroke:none"
           d="M 28.482944,23.207031 28.224153,22.241209 C 27.888718,20.989347 27.449662,18.363338 26.607266,15.78002 25.764869,13.196703 24.537238,10.536672 22.232051,9.2057713 21.118456,8.5628368 19.9227,8.1873354 18.718615,8.0568452 c 1.707262,0.8441642 3.191191,2.1800518 4.209354,3.9435608 0.437877,0.758426 0.757351,1.55243 0.977411,2.361762 0.298461,0.644267 0.567839,1.32861 0.799098,2.037797 0.663932,2.036034 1.002211,3.911648 1.349536,5.404722 -1.0792,0.32798 -2.337525,0.762477 -3.760584,1.146335 -0.02016,0.02736 -0.03709,0.05688 -0.05755,0.08405 -0.759567,1.008745 -1.723875,1.886751 -2.871038,2.566534 0.588688,-0.0807 1.174945,-0.184224 1.748278,-0.305455 2.658417,-0.562123 5.152135,-1.494894 6.403997,-1.83033 z"
           id="path7347" />
        <path
           style="color:#000000;fill:#fafafa;fill-opacity:1;stroke:none;-inkscape-stroke:none"
           d="m 11.419108,10.604725 c 3.24021,-1.4509712 7.095645,-0.249045 8.911019,2.895275 0.618473,1.071227 0.922234,2.234184 0.941708,3.384993 0.463889,-0.853798 0.727252,-1.836275 0.727252,-2.884895 1e-6,-0.916596 -0.561026,-2.160969 -1.451926,-3.444496 -1.858712,-1.8082458 -4.410462,-2.7154471 -6.956062,-2.5287218 -0.281927,0.2840047 -0.565941,0.5828837 -0.854054,0.9035481 -0.4948,0.5507014 -0.934258,1.1165747 -1.317937,1.6742967 z"
           id="path7349" />
        <path
           style="color:#000000;fill:#fafafa;fill-opacity:1;stroke:none;-inkscape-stroke:none"
           d="m 3.517056,23.207031 0.9658219,0.258792 c 1.2518618,0.335435 3.7455803,1.268206 6.4039971,1.830329 2.658417,0.562121 5.575887,0.828977 7.881074,-0.501923 1.113595,-0.642935 2.036667,-1.490739 2.751717,-2.468262 -1.584698,1.05645 -3.483575,1.673627 -5.519901,1.673627 -0.875754,0 -1.723119,-0.12033 -2.534051,-0.334418 -0.707182,-0.06366 -1.434529,-0.172542 -2.164333,-0.326859 -2.095223,-0.443035 -3.8886919,-1.087884 -5.3553944,-1.533629 0.255561,-1.098605 0.508438,-2.405595 0.8875367,-3.829929 -0.013614,-0.03114 -0.030715,-0.06056 -0.044014,-0.09186 -0.4938157,-1.162181 -0.7720372,-2.4363 -0.787165,-3.769663 -0.2244558,0.550168 -0.4279299,1.109644 -0.6096072,1.66678 -0.8423957,2.583318 -1.2814514,5.209327 -1.6168863,6.461189 z"
           id="path7351" />
      </g>
    </g>
  </g>
</svg>
